<svg width="1880" height="300" viewBox="-50 -28 1880 300" fill="none" xmlns="http://www.w3.org/2000/svg">
<path d="M0 238.104L119.601 5.95752H216.418L96.8176 238.104H0Z" fill="#3A83F7"/>
<path d="M245.683 238.095H151.277C151.277 109.13 256.062 4.22388 384.879 4.22388V98.7382C308.132 98.7382 245.683 161.259 245.683 238.095Z" fill="#3A83F7"/>
<path d="M384.814 126.593C323.27 126.593 273.397 176.524 273.397 238.139H384.814V126.593Z" fill="#3A83F7"/>
<path d="M624.016 170.051L543.091 4.08984H507.818V238.393H544.555V88.2129L616.22 238.393H631.811L703.649 88.2129V238.393H740.214V4.08984H704.941L624.016 170.051Z" fill="black"/>
<path d="M815.295 62.6506H776.147V238.399H815.295V62.6506Z" fill="black"/>
<path d="M815.295 0H776.147V35.9603H815.295V0Z" fill="black"/>
<path d="M904.222 101.797C910.811 96.9679 919.21 94.5531 929.417 94.5531C938.418 94.5531 946.429 97.1834 953.449 102.444C960.512 107.704 965.508 115.034 968.566 124.477L1007.59 113.913C1003.37 96.5367 994.321 82.8682 980.539 72.8218C966.714 62.7753 949.831 57.7737 929.891 57.7737C912.104 57.7737 896.771 61.7406 883.894 69.7174C871.017 77.6942 861.068 88.6462 854.091 102.573C847.113 116.5 843.539 132.497 843.453 150.477C843.582 168.155 846.985 183.98 853.789 197.993C860.551 211.963 870.327 223.001 883.119 231.108C895.91 239.171 911.328 243.224 929.46 243.224C949.056 243.224 965.637 238.438 979.204 228.822C992.727 219.207 1002.25 205.452 1007.63 187.558L967.662 178.59C964.604 187.602 960.082 194.5 954.095 199.243C948.066 204.03 939.882 206.401 929.46 206.401C914.731 206.401 903.619 201.227 896.125 190.965C888.674 180.66 884.928 167.164 884.928 150.434C884.928 139.698 886.521 130.082 889.622 121.631C892.766 113.18 897.633 106.54 904.265 101.711" fill="black"/>
<path d="M1272.24 69.6318C1259.11 61.6981 1243.73 57.7312 1226.07 57.7312C1208.42 57.7312 1193.69 61.6551 1180.55 69.4594C1167.46 77.2637 1157.21 88.1294 1149.84 102.013C1142.48 115.897 1138.78 132.067 1138.78 150.521C1138.78 168.975 1142.39 184.67 1149.59 198.597C1156.78 212.524 1166.94 223.476 1180.08 231.367C1193.17 239.301 1208.5 243.224 1226.07 243.224C1243.65 243.224 1258.98 239.301 1272.07 231.41C1285.16 223.563 1295.41 212.654 1302.69 198.684C1310.01 184.757 1313.68 168.674 1313.68 150.435C1313.68 132.196 1310.06 116.285 1302.78 102.358C1295.5 88.4313 1285.34 77.4792 1272.24 69.5886M1260.87 190.793C1253.29 201.227 1241.71 206.402 1226.07 206.402C1210.44 206.402 1199.59 201.314 1191.88 191.181C1184.13 181.048 1180.25 167.466 1180.25 150.435C1180.25 139.353 1181.89 129.652 1185.12 121.244C1188.35 112.836 1193.39 106.282 1200.15 101.539C1206.91 96.8393 1215.57 94.4677 1226.07 94.4677C1241.45 94.4677 1252.99 99.5555 1260.7 109.688C1268.41 119.821 1272.24 133.403 1272.24 150.435C1272.24 167.466 1268.45 180.358 1260.87 190.793Z" fill="black"/>
<path d="M1454.45 146.683C1446.05 142.07 1434.85 137.974 1420.9 134.395C1407.24 130.945 1396.99 128.013 1390.1 125.599C1383.21 123.227 1378.65 120.813 1376.37 118.441C1374.08 116.07 1372.96 113.181 1372.96 109.818C1372.96 103.867 1375.76 99.2108 1381.4 95.8907C1387.05 92.5706 1394.45 91.1907 1403.67 91.7513C1413.32 92.3118 1421.03 94.7265 1426.84 99.0814C1432.66 103.436 1436.01 109.343 1437 116.803L1476.97 109.645C1475.46 99.1243 1471.46 89.9404 1464.96 82.1361C1458.45 74.3317 1449.93 68.2952 1439.37 64.0697C1428.82 59.8441 1416.68 57.7312 1403.07 57.7312C1389.46 57.7312 1376.97 59.9303 1366.67 64.3284C1356.38 68.7264 1348.37 74.9784 1342.64 83.1277C1336.91 91.277 1334.03 100.806 1334.03 111.758C1334.03 120.554 1335.92 128.013 1339.71 134.222C1343.5 140.388 1349.75 145.735 1358.41 150.262C1367.06 154.747 1378.78 158.972 1393.51 162.853C1406.73 166.345 1416.5 169.191 1422.92 171.476C1429.3 173.761 1433.47 176.133 1435.37 178.548C1437.26 181.005 1438.21 184.239 1438.21 188.249C1438.21 194.76 1435.63 199.891 1430.5 203.642C1425.38 207.393 1418.06 209.247 1408.67 209.247C1397.94 209.247 1389.07 206.747 1382.01 201.788C1374.99 196.787 1370.42 189.974 1368.35 181.264L1328.39 187.43C1331.32 205.108 1339.54 218.82 1353.11 228.607C1366.63 238.352 1384.25 243.268 1405.91 243.268C1427.57 243.268 1446.31 238.223 1459.14 228.133C1471.98 218.044 1478.39 204.159 1478.39 186.481C1478.39 177.383 1476.54 169.622 1472.79 163.198C1469.05 156.816 1462.97 151.297 1454.58 146.683" fill="black"/>
<path d="M1628.13 70.5367C1615.38 62.0424 1599.92 57.7737 1581.74 57.7737C1564.52 57.7737 1549.36 61.6973 1536.22 69.5016C1523.13 77.306 1512.88 88.3011 1505.51 102.444C1498.15 116.586 1494.44 133.273 1494.44 152.461C1494.44 170.268 1498.19 185.963 1505.73 199.632C1513.26 213.3 1523.73 223.993 1537.17 231.668C1550.6 239.343 1566.19 243.224 1583.98 243.224C1601.77 243.224 1616.37 238.826 1630.37 230.03C1644.41 221.234 1654.79 208.945 1661.5 193.078L1622.83 181.349C1619.04 189.499 1613.66 195.708 1606.68 199.976C1599.7 204.245 1591.39 206.401 1581.74 206.401C1566.8 206.401 1555.43 201.529 1547.63 191.741C1541.52 184.066 1537.81 173.933 1536.52 161.3H1663.53C1665.04 140.258 1662.71 121.976 1656.55 106.454C1650.39 90.9312 1640.92 78.9445 1628.21 70.4072M1583.42 91.9661C1597.59 91.9661 1608.01 96.3641 1614.65 105.16C1619.34 111.412 1622.36 120.252 1623.78 131.678H1537.51C1539.32 121.545 1542.68 113.223 1547.68 106.842C1555.47 96.9247 1567.4 91.9661 1583.42 91.9661Z" fill="black"/>
<path d="M1780 93.3834V62.6403H1728.49V13.8308H1689.47V166.597C1689.47 176.601 1689.6 185.526 1689.81 193.46C1690.03 201.393 1692.14 209.155 1696.15 216.744C1700.71 225.108 1707.34 231.188 1716.13 235.025C1724.92 238.863 1734.86 240.933 1745.93 241.191C1757 241.45 1768.37 240.502 1780 238.346V205.49C1769.06 207.128 1759.28 207.559 1750.76 206.783C1742.19 206.007 1735.98 202.385 1732.07 195.874C1730 192.511 1728.88 188.156 1728.75 182.853C1728.58 177.549 1728.49 171.341 1728.49 164.312V93.3834H1780Z" fill="black"/>
<path d="M1030.41 127.715V238.356H1069.74V126.595C1069.74 111.503 1081.97 99.2577 1097.08 99.2577H1129.21V62.6506H1095.4C1059.53 62.6506 1030.41 91.7982 1030.41 127.715Z" fill="black"/>
</svg>
